<?xml version="1.0" encoding="UTF-8"?>
<svg id="Layer_1" data-name="Layer 1" xmlns="http://www.w3.org/2000/svg" viewBox="0 0 683.79 1000">
  <defs>
    <style>
      .cls-1 {
        fill: #2bcb69;
      }

      .cls-2 {
        fill: #1a79cb;
      }
    </style>
  </defs>
  <path class="cls-2" d="m16.3,340.3v321.91c0,172.84,138,316.69,310.84,317.96,120.6.89,225.57-66.4,278.67-165.61-44.16,41.23-103.69,66.21-169.08,65.38-133.75-1.7-240.04-113.48-240.04-247.24v-292.41c0-49.82-40.38-90.2-90.2-90.2h0c-49.82,0-90.2,40.38-90.2,90.2Z"/>
  <path class="cls-1" d="m369.59,782.7c93.81-3.5,166.86-83.19,166.86-177.07v-168.22c0-35.54,28.81-64.35,64.35-64.35h0c35.54,0,64.35,28.81,64.35,64.35v188.82c0,123.31-100.86,228.46-224.17,228.08-85.04-.26-158.89-48.04-196.42-118.16,32.49,30.34,76.65,48.34,125.02,46.53Z"/>
  <g>
    <path class="cls-2" d="m667.49,260.67s-381.45,165.82-327.69,382.77c0,0-227.82-340.37,109.19-623.62-63.54,100.1-68.23,202.77-23.24,244.06,35.81,32.86,103.47,27.19,137.67,24.33,45.41-3.8,81.26-17.07,104.07-27.54Z"/>
    <circle class="cls-2" cx="537.37" cy="153.31" r="63.34"/>
  </g>
</svg>