<?xml version="1.0" encoding="UTF-8"?>
<svg id="Layer_1" data-name="Layer 1" xmlns="http://www.w3.org/2000/svg" viewBox="0 0 1000 438.93">
  <defs>
    <style>
      .cls-1 {
        fill: #2bcb69;
      }

      .cls-2 {
        fill: #1a79cb;
      }
    </style>
  </defs>
  <g>
    <g>
      <path class="cls-2" d="m445.9,102.36h-39.29l-24.69,55.94h37.25l6.79-16.87,6.77,16.87,11.35,28.26h-74.62l-25.09,56.82h40.69l11.08-27.4h59.63l11.08,27.4h41.49l-62.44-141.02Z"/>
      <path class="cls-2" d="m659.45,199.06c8.86-4.3,15.69-10.24,20.45-17.84,4.76-7.57,7.15-16.47,7.15-26.7s-2.54-19.84-7.65-27.68c-5.1-7.86-12.36-13.91-21.76-18.14-9.4-4.23-20.49-6.34-33.25-6.34h-64.47v31.43h62.05c8.2,0,14.38,1.81,18.53,5.43,4.17,3.64,6.25,8.74,6.25,15.31s-2.08,11.66-6.25,15.22c-4.15,3.56-10.33,5.34-18.53,5.34h-62.05v68.3h39.9v-37.48h21.76l25.59,37.48h42.71l-30.42-44.32Z"/>
      <path class="cls-2" d="m848.82,199.06c8.86-4.3,15.69-10.24,20.45-17.84,4.76-7.57,7.15-16.47,7.15-26.7s-2.54-19.84-7.65-27.68c-5.1-7.86-12.36-13.91-21.76-18.14-9.4-4.23-20.49-6.34-33.24-6.34h-64.48v141.02h39.9v-37.48h21.76l25.59,37.48h42.71l-30.42-44.32Zm-18.93-29.31c-4.17,3.56-10.35,5.34-18.53,5.34h-22.17v-41.29h22.17c8.18,0,14.36,1.81,18.53,5.43,4.15,3.64,6.23,8.74,6.23,15.31s-2.08,11.66-6.23,15.22Z"/>
      <path class="cls-2" d="m938.68,102.36v141.02h39.88V102.36h-39.88Z"/>
    </g>
    <g>
      <path class="cls-2" d="m346.28,377.82h8.55c2.14,0,4.05.43,5.71,1.28,1.66.85,2.95,2.04,3.87,3.58.92,1.54,1.38,3.3,1.38,5.29s-.46,3.75-1.38,5.29c-.92,1.54-2.21,2.73-3.87,3.58-1.66.85-3.56,1.28-5.71,1.28h-8.55v-20.28Zm8.37,17.76c1.64,0,3.08-.32,4.33-.96,1.24-.64,2.2-1.53,2.88-2.68.68-1.15,1.01-2.48,1.01-3.98s-.34-2.84-1.01-3.98c-.68-1.15-1.64-2.04-2.88-2.68-1.25-.64-2.69-.96-4.33-.96h-5.48v15.24h5.48Z"/>
      <path class="cls-2" d="m384.92,395.58v2.52h-14.72v-20.28h14.31v2.52h-11.41v6.23h10.17v2.46h-10.17v6.55h11.82Z"/>
      <path class="cls-2" d="m389.62,377.82h2.9v17.76h10.98v2.52h-13.88v-20.28Z"/>
      <path class="cls-2" d="m406.83,377.82h2.9v20.28h-2.9v-20.28Z"/>
      <path class="cls-2" d="m433.22,377.82l-8.89,20.28h-2.87l-8.92-20.28h3.13l7.3,16.66,7.36-16.66h2.9Z"/>
      <path class="cls-2" d="m450.52,395.58v2.52h-14.72v-20.28h14.31v2.52h-11.41v6.23h10.17v2.46h-10.17v6.55h11.82Z"/>
      <path class="cls-2" d="m468.77,398.1l-4.38-6.23c-.54.04-.97.06-1.27.06h-5.01v6.17h-2.9v-20.28h7.91c2.63,0,4.69.63,6.2,1.88,1.5,1.25,2.26,2.98,2.26,5.19,0,1.56-.39,2.9-1.16,4-.77,1.1-1.87,1.9-3.3,2.4l4.81,6.81h-3.16Zm-1.54-9.82c.97-.79,1.45-1.92,1.45-3.39s-.48-2.59-1.45-3.38c-.97-.78-2.37-1.17-4.2-1.17h-4.92v9.13h4.92c1.83,0,3.23-.4,4.2-1.19Z"/>
      <path class="cls-2" d="m476.27,377.82h2.9v20.28h-2.9v-20.28Z"/>
      <path class="cls-2" d="m502.69,377.82v20.28h-2.37l-12.17-15.12v15.12h-2.9v-20.28h2.37l12.17,15.12v-15.12h2.9Z"/>
      <path class="cls-2" d="m522.83,387.85h2.78v7.91c-1.01.83-2.17,1.47-3.51,1.91-1.33.44-2.72.67-4.17.67-2.05,0-3.89-.45-5.53-1.35s-2.93-2.13-3.87-3.71c-.94-1.57-1.41-3.35-1.41-5.32s.47-3.75,1.41-5.33c.94-1.58,2.23-2.82,3.88-3.71s3.51-1.33,5.58-1.33c1.62,0,3.09.27,4.42.8,1.32.53,2.45,1.31,3.37,2.33l-1.8,1.8c-1.62-1.56-3.58-2.35-5.88-2.35-1.55,0-2.93.33-4.16,1-1.23.67-2.19,1.59-2.88,2.78-.7,1.19-1.04,2.53-1.04,4.01s.35,2.79,1.04,3.98c.7,1.19,1.66,2.12,2.88,2.8,1.23.68,2.6,1.01,4.13,1.01,1.82,0,3.4-.44,4.75-1.3v-6.61Z"/>
      <path class="cls-2" d="m553.66,395.58v2.52h-14.72v-20.28h14.31v2.52h-11.41v6.23h10.17v2.46h-10.17v6.55h11.82Z"/>
      <path class="cls-2" d="m570.86,398.1l-6.08-8.37-6,8.37h-3.33l7.62-10.4-7.16-9.88h3.3l5.68,7.79,5.62-7.79h3.16l-7.16,9.79,7.68,10.49h-3.33Z"/>
      <path class="cls-2" d="m580.47,396.99c-1.63-.9-2.91-2.13-3.84-3.71-.93-1.57-1.39-3.35-1.39-5.32s.46-3.74,1.39-5.32c.93-1.57,2.21-2.81,3.85-3.71,1.64-.9,3.47-1.35,5.5-1.35,1.58,0,3.03.27,4.35.8,1.31.53,2.43,1.32,3.36,2.36l-1.88,1.83c-1.53-1.6-3.43-2.41-5.71-2.41-1.51,0-2.87.34-4.09,1.01-1.22.68-2.17,1.61-2.86,2.8-.68,1.19-1.03,2.52-1.03,3.98s.34,2.79,1.03,3.98c.69,1.19,1.64,2.12,2.86,2.8,1.22.68,2.58,1.01,4.09,1.01,2.26,0,4.16-.81,5.71-2.43l1.88,1.82c-.93,1.04-2.05,1.84-3.38,2.38-1.32.54-2.78.81-4.36.81-2.03,0-3.86-.45-5.49-1.35Z"/>
      <path class="cls-2" d="m612.55,395.58v2.52h-14.72v-20.28h14.31v2.52h-11.41v6.23h10.17v2.46h-10.17v6.55h11.82Z"/>
      <path class="cls-2" d="m631.36,379.71c1.5,1.25,2.26,2.98,2.26,5.19s-.75,3.93-2.26,5.19c-1.51,1.26-3.57,1.88-6.2,1.88h-5.01v6.14h-2.9v-20.28h7.91c2.63,0,4.69.63,6.2,1.88Zm-2.09,8.56c.97-.78,1.45-1.91,1.45-3.38s-.48-2.59-1.45-3.38c-.97-.78-2.37-1.17-4.2-1.17h-4.92v9.1h4.92c1.83,0,3.23-.39,4.2-1.17Z"/>
      <path class="cls-2" d="m641.26,380.34h-6.95v-2.52h16.77v2.52h-6.95v17.76h-2.87v-17.76Z"/>
      <path class="cls-2" d="m654.24,377.82h2.9v20.28h-2.9v-20.28Z"/>
      <path class="cls-2" d="m666.85,396.99c-1.64-.9-2.93-2.14-3.87-3.72-.94-1.58-1.41-3.35-1.41-5.3s.47-3.72,1.41-5.3c.94-1.58,2.23-2.82,3.87-3.72,1.64-.9,3.49-1.35,5.53-1.35s3.86.45,5.5,1.35c1.64.9,2.93,2.13,3.85,3.71.93,1.57,1.39,3.35,1.39,5.32s-.46,3.74-1.39,5.32c-.93,1.57-2.21,2.81-3.85,3.71-1.64.9-3.47,1.35-5.5,1.35s-3.89-.45-5.53-1.35Zm9.55-2.24c1.19-.68,2.12-1.61,2.81-2.8.68-1.19,1.03-2.52,1.03-3.98s-.34-2.8-1.03-3.98c-.69-1.19-1.62-2.12-2.81-2.8-1.19-.68-2.53-1.01-4.01-1.01s-2.83.34-4.04,1.01c-1.21.68-2.15,1.61-2.84,2.8-.68,1.19-1.03,2.52-1.03,3.98s.34,2.79,1.03,3.98c.69,1.19,1.63,2.12,2.84,2.8,1.21.68,2.55,1.01,4.04,1.01s2.82-.34,4.01-1.01Z"/>
      <path class="cls-2" d="m705,377.82v20.28h-2.37l-12.17-15.12v15.12h-2.9v-20.28h2.37l12.17,15.12v-15.12h2.9Z"/>
      <path class="cls-2" d="m724.01,393.03h-10.78l-2.23,5.07h-2.98l9.18-20.28h2.87l9.21,20.28h-3.04l-2.23-5.07Zm-1.01-2.32l-4.38-9.94-4.37,9.94h8.75Z"/>
      <path class="cls-2" d="m732.29,377.82h2.9v17.76h10.98v2.52h-13.88v-20.28Z"/>
      <path class="cls-2" d="m760.88,396.99c-1.63-.9-2.91-2.13-3.84-3.71-.93-1.57-1.39-3.35-1.39-5.32s.46-3.74,1.39-5.32c.93-1.57,2.21-2.81,3.85-3.71,1.64-.9,3.47-1.35,5.5-1.35,1.58,0,3.03.27,4.35.8,1.31.53,2.43,1.32,3.36,2.36l-1.88,1.83c-1.53-1.6-3.43-2.41-5.71-2.41-1.51,0-2.87.34-4.09,1.01-1.22.68-2.17,1.61-2.86,2.8-.68,1.19-1.03,2.52-1.03,3.98s.34,2.79,1.03,3.98c.69,1.19,1.64,2.12,2.86,2.8,1.22.68,2.58,1.01,4.09,1.01,2.26,0,4.16-.81,5.71-2.43l1.88,1.82c-.93,1.04-2.05,1.84-3.38,2.38-1.32.54-2.78.81-4.36.81-2.03,0-3.86-.45-5.49-1.35Z"/>
      <path class="cls-2" d="m790.67,393.03h-10.78l-2.23,5.07h-2.98l9.18-20.28h2.87l9.21,20.28h-3.04l-2.23-5.07Zm-1.01-2.32l-4.38-9.94-4.37,9.94h8.75Z"/>
      <path class="cls-2" d="m812.52,398.1l-4.38-6.23c-.54.04-.97.06-1.27.06h-5.01v6.17h-2.9v-20.28h7.91c2.63,0,4.69.63,6.2,1.88,1.5,1.25,2.26,2.98,2.26,5.19,0,1.56-.39,2.9-1.16,4-.77,1.1-1.87,1.9-3.3,2.4l4.81,6.81h-3.16Zm-1.54-9.82c.97-.79,1.45-1.92,1.45-3.39s-.48-2.59-1.45-3.38c-.97-.78-2.37-1.17-4.2-1.17h-4.92v9.13h4.92c1.83,0,3.23-.4,4.2-1.19Z"/>
      <path class="cls-2" d="m834.74,395.58v2.52h-14.72v-20.28h14.31v2.52h-11.41v6.23h10.17v2.46h-10.17v6.55h11.82Z"/>
      <path class="cls-2" d="m841.36,394.87c.36.38.54.84.54,1.41,0,.29-.04.57-.1.84-.07.27-.2.69-.39,1.25l-1.36,4.03h-1.83l1.07-4.32c-.37-.14-.66-.36-.88-.68-.22-.32-.33-.69-.33-1.12,0-.58.18-1.05.55-1.42.37-.37.83-.55,1.39-.55s.99.19,1.35.57Z"/>
      <path class="cls-2" d="m867.01,393.03h-10.78l-2.23,5.07h-2.98l9.18-20.28h2.87l9.21,20.28h-3.04l-2.23-5.07Zm-1.01-2.32l-4.38-9.94-4.37,9.94h8.75Z"/>
      <path class="cls-2" d="m875.3,377.82h2.9v17.76h10.98v2.52h-13.88v-20.28Z"/>
      <path class="cls-2" d="m919.65,377.82l-6.78,20.28h-3.04l-5.53-16.2-5.54,16.2h-3.1l-6.78-20.28h2.98l5.48,16.49,5.71-16.49h2.67l5.59,16.57,5.59-16.57h2.75Z"/>
      <path class="cls-2" d="m935.47,393.03h-10.78l-2.23,5.07h-2.98l9.18-20.28h2.87l9.21,20.28h-3.04l-2.23-5.07Zm-1.01-2.32l-4.38-9.94-4.37,9.94h8.75Z"/>
      <path class="cls-2" d="m950.3,391.09v7.01h-2.87v-7.07l-8.05-13.21h3.1l6.49,10.69,6.52-10.69h2.87l-8.05,13.27Z"/>
      <path class="cls-2" d="m962.34,397.63c-1.42-.47-2.54-1.09-3.35-1.84l1.07-2.26c.77.7,1.76,1.26,2.97,1.69,1.21.43,2.45.65,3.72.65,1.68,0,2.94-.29,3.77-.86.83-.57,1.24-1.33,1.24-2.27,0-.7-.23-1.26-.68-1.69-.45-.43-1.01-.77-1.68-1s-1.61-.49-2.82-.78c-1.53-.37-2.76-.73-3.69-1.1-.94-.37-1.74-.93-2.4-1.69s-1-1.79-1-3.09c0-1.08.29-2.06.86-2.93.57-.87,1.43-1.56,2.59-2.09s2.6-.78,4.32-.78c1.2,0,2.37.15,3.53.46,1.16.31,2.15.75,2.98,1.33l-.96,2.32c-.85-.54-1.76-.95-2.72-1.23s-1.91-.42-2.84-.42c-1.64,0-2.87.3-3.69.9-.82.6-1.23,1.37-1.23,2.32,0,.7.23,1.26.7,1.69.46.44,1.04.77,1.72,1.01s1.62.5,2.8.77c1.53.37,2.75.73,3.68,1.1.93.37,1.72.93,2.39,1.68.67.75,1,1.77,1,3.04,0,1.06-.29,2.03-.87,2.91s-1.46,1.57-2.64,2.09c-1.18.51-2.63.77-4.35.77-1.53,0-3-.24-4.42-.71Z"/>
    </g>
    <g>
      <path class="cls-1" d="m380.98,294.84v35.8h-6.65v-15.34h-18.51v15.34h-6.65v-35.8h6.65v14.78h18.51v-14.78h6.65Z"/>
      <path class="cls-1" d="m417.44,325.06v5.57h-26.85v-35.8h26.13v5.57h-19.48v9.31h17.28v5.47h-17.28v9.87h20.2Z"/>
      <path class="cls-1" d="m448.07,322.35h-17.9l-3.53,8.28h-6.85l16.11-35.8h6.55l16.16,35.8h-6.95l-3.58-8.28Zm-2.2-5.22l-6.75-15.65-6.7,15.65h13.45Z"/>
      <path class="cls-1" d="m463.16,294.84h6.65v30.17h18.71v5.62h-25.36v-35.8Z"/>
      <path class="cls-1" d="m497.73,300.46h-11.86v-5.63h30.37v5.63h-11.86v30.17h-6.65v-30.17Z"/>
      <path class="cls-1" d="m553.06,294.84v35.8h-6.65v-15.34h-18.51v15.34h-6.65v-35.8h6.65v14.78h18.51v-14.78h6.65Z"/>
      <path class="cls-1" d="m569.44,328.77c-2.91-1.59-5.2-3.78-6.85-6.57-1.65-2.8-2.48-5.95-2.48-9.46s.84-6.66,2.51-9.46c1.67-2.8,3.96-4.99,6.88-6.57,2.92-1.59,6.18-2.38,9.79-2.38,2.93,0,5.61.51,8.03,1.53s4.47,2.51,6.14,4.45l-4.3,4.04c-2.59-2.8-5.78-4.19-9.56-4.19-2.45,0-4.65.54-6.6,1.61-1.94,1.07-3.46,2.57-4.55,4.47-1.09,1.91-1.64,4.07-1.64,6.49s.54,4.59,1.64,6.49c1.09,1.91,2.61,3.4,4.55,4.48,1.94,1.07,4.14,1.61,6.6,1.61,3.78,0,6.97-1.41,9.56-4.24l4.3,4.09c-1.67,1.94-3.72,3.43-6.16,4.45s-5.12,1.53-8.05,1.53c-3.61,0-6.88-.79-9.79-2.38Z"/>
      <path class="cls-1" d="m622.29,322.35h-17.9l-3.53,8.28h-6.85l16.11-35.8h6.55l16.16,35.8h-6.95l-3.58-8.28Zm-2.2-5.22l-6.75-15.65-6.7,15.65h13.45Z"/>
      <path class="cls-1" d="m660.8,330.63l-7.31-10.48c-.31.03-.77.05-1.38.05h-8.08v10.43h-6.65v-35.8h14.73c3.1,0,5.8.51,8.1,1.53,2.3,1.02,4.07,2.49,5.29,4.4,1.23,1.91,1.84,4.18,1.84,6.8s-.66,5.01-1.97,6.95-3.2,3.39-5.65,4.35l8.23,11.76h-7.16Zm-2.4-28.33c-1.5-1.23-3.7-1.84-6.6-1.84h-7.77v14.27h7.77c2.9,0,5.1-.62,6.6-1.87,1.5-1.24,2.25-3.01,2.25-5.29s-.75-4.04-2.25-5.27Z"/>
      <path class="cls-1" d="m701.6,325.06v5.57h-26.85v-35.8h26.13v5.57h-19.48v9.31h17.28v5.47h-17.28v9.87h20.2Z"/>
      <path class="cls-1" d="m726.23,329.97c-2.57-.78-4.61-1.82-6.11-3.12l2.3-5.16c1.46,1.16,3.26,2.11,5.39,2.84,2.13.73,4.27,1.1,6.42,1.1,2.66,0,4.65-.43,5.96-1.28,1.31-.85,1.97-1.98,1.97-3.37,0-1.02-.37-1.87-1.1-2.53s-1.66-1.18-2.79-1.56c-1.12-.37-2.66-.8-4.6-1.28-2.73-.65-4.93-1.29-6.62-1.94s-3.14-1.66-4.35-3.04-1.81-3.25-1.81-5.6c0-1.98.54-3.78,1.61-5.39,1.07-1.62,2.69-2.91,4.86-3.86,2.16-.95,4.82-1.43,7.95-1.43,2.18,0,4.33.27,6.44.82,2.11.55,3.94,1.33,5.47,2.35l-2.1,5.16c-1.57-.92-3.2-1.62-4.91-2.1-1.71-.48-3.36-.72-4.96-.72-2.63,0-4.58.44-5.86,1.33-1.28.89-1.92,2.06-1.92,3.53,0,1.02.37,1.86,1.1,2.51.73.65,1.66,1.16,2.79,1.53s2.66.8,4.6,1.28c2.66.61,4.84,1.25,6.55,1.92,1.7.66,3.16,1.68,4.37,3.04s1.82,3.2,1.82,5.52c0,1.98-.54,3.77-1.61,5.37-1.07,1.6-2.7,2.88-4.89,3.84s-4.84,1.43-7.98,1.43c-2.76,0-5.43-.39-8-1.18Z"/>
      <path class="cls-1" d="m782.14,325.06v5.57h-26.85v-35.8h26.13v5.57h-19.48v9.31h17.28v5.47h-17.28v9.87h20.2Z"/>
      <path class="cls-1" d="m812.98,330.63l-7.31-10.48c-.31.03-.77.05-1.38.05h-8.08v10.43h-6.65v-35.8h14.73c3.1,0,5.8.51,8.1,1.53,2.3,1.02,4.07,2.49,5.29,4.4,1.23,1.91,1.84,4.18,1.84,6.8s-.66,5.01-1.97,6.95-3.2,3.39-5.65,4.35l8.23,11.76h-7.16Zm-2.4-28.33c-1.5-1.23-3.7-1.84-6.6-1.84h-7.77v14.27h7.77c2.9,0,5.1-.62,6.6-1.87,1.5-1.24,2.25-3.01,2.25-5.29s-.75-4.04-2.25-5.27Z"/>
      <path class="cls-1" d="m859.67,294.84l-15.6,35.8h-6.55l-15.65-35.8h7.21l11.91,27.61,12.02-27.61h6.65Z"/>
      <path class="cls-1" d="m863.45,294.84h6.65v35.8h-6.65v-35.8Z"/>
      <path class="cls-1" d="m886.54,328.77c-2.91-1.59-5.2-3.78-6.85-6.57-1.65-2.8-2.48-5.95-2.48-9.46s.84-6.66,2.51-9.46c1.67-2.8,3.96-4.99,6.88-6.57,2.92-1.59,6.18-2.38,9.79-2.38,2.93,0,5.61.51,8.03,1.53s4.47,2.51,6.14,4.45l-4.3,4.04c-2.59-2.8-5.78-4.19-9.56-4.19-2.45,0-4.65.54-6.6,1.61-1.94,1.07-3.46,2.57-4.55,4.47-1.09,1.91-1.64,4.07-1.64,6.49s.54,4.59,1.64,6.49c1.09,1.91,2.61,3.4,4.55,4.48,1.94,1.07,4.14,1.61,6.6,1.61,3.78,0,6.97-1.41,9.56-4.24l4.3,4.09c-1.67,1.94-3.72,3.43-6.16,4.45s-5.12,1.53-8.05,1.53c-3.61,0-6.88-.79-9.79-2.38Z"/>
      <path class="cls-1" d="m943.79,325.06v5.57h-26.85v-35.8h26.13v5.57h-19.48v9.31h17.28v5.47h-17.28v9.87h20.2Z"/>
      <path class="cls-1" d="m954.29,329.97c-2.57-.78-4.61-1.82-6.11-3.12l2.3-5.16c1.46,1.16,3.26,2.11,5.39,2.84,2.13.73,4.27,1.1,6.42,1.1,2.66,0,4.65-.43,5.96-1.28,1.31-.85,1.97-1.98,1.97-3.37,0-1.02-.37-1.87-1.1-2.53s-1.66-1.18-2.79-1.56c-1.12-.37-2.66-.8-4.6-1.28-2.73-.65-4.93-1.29-6.62-1.94s-3.14-1.66-4.35-3.04-1.81-3.25-1.81-5.6c0-1.98.54-3.78,1.61-5.39,1.07-1.62,2.69-2.91,4.86-3.86,2.16-.95,4.82-1.43,7.95-1.43,2.18,0,4.33.27,6.44.82,2.11.55,3.94,1.33,5.47,2.35l-2.1,5.16c-1.57-.92-3.2-1.62-4.91-2.1-1.71-.48-3.36-.72-4.96-.72-2.63,0-4.58.44-5.86,1.33-1.28.89-1.92,2.06-1.92,3.53,0,1.02.37,1.86,1.1,2.51.73.65,1.66,1.16,2.79,1.53s2.66.8,4.6,1.28c2.66.61,4.84,1.25,6.55,1.92,1.7.66,3.16,1.68,4.37,3.04s1.82,3.2,1.82,5.52c0,1.98-.54,3.77-1.61,5.37-1.07,1.6-2.7,2.88-4.89,3.84s-4.84,1.43-7.98,1.43c-2.76,0-5.43-.39-8-1.18Z"/>
    </g>
    <g>
      <rect class="cls-1" x="344.36" y="270.7" width="632.4" height="7.05"/>
      <rect class="cls-1" x="344.36" y="347.71" width="632.4" height="7.05"/>
    </g>
  </g>
  <g>
    <path class="cls-2" d="m21.44,153.01v133.94c0,71.92,57.42,131.77,129.34,132.3,50.18.37,93.86-27.63,115.95-68.91-18.37,17.15-43.14,27.55-70.35,27.2-55.65-.71-99.88-47.22-99.88-102.87v-121.67c0-20.73-16.8-37.53-37.53-37.53h0c-20.73,0-37.53,16.8-37.53,37.53Z"/>
    <path class="cls-1" d="m168.44,337.09c39.03-1.46,69.43-34.61,69.43-73.67v-69.99c0-14.79,11.99-26.78,26.78-26.78h0c14.79,0,26.78,11.99,26.78,26.78v78.57c0,51.31-41.97,95.06-93.27,94.9-35.38-.11-66.11-19.99-81.73-49.16,13.52,12.62,31.89,20.11,52.02,19.36Z"/>
    <g>
      <path class="cls-2" d="m292.39,119.88s-158.71,69-136.35,159.26c0,0-94.79-141.62,45.43-259.47-26.44,41.65-28.39,84.37-9.67,101.55,14.9,13.67,43.05,11.31,57.28,10.12,18.9-1.58,33.81-7.1,43.3-11.46Z"/>
      <circle class="cls-2" cx="238.25" cy="75.21" r="26.35"/>
    </g>
  </g>
</svg>