<?xml version="1.0" encoding="UTF-8"?>
<svg id="Layer_1" data-name="Layer 1" xmlns="http://www.w3.org/2000/svg" viewBox="0 0 1000 366.17">
  <defs>
    <style>
      .cls-1 {
        fill: #096982;
      }

      .cls-2 {
        fill: #fe8f01;
      }
    </style>
  </defs>
  <circle class="cls-2" cx="201.19" cy="60.89" r="22.31"/>
  <g>
    <g>
      <path class="cls-1" d="m17.65,126.76v113.39c0,60.88,48.61,111.55,109.49,112,42.48.31,79.45-23.39,98.16-58.33-15.55,14.52-36.52,23.32-59.55,23.03-47.11-.6-84.55-39.97-84.55-87.08v-103c0-17.55-14.22-31.77-31.77-31.77h0c-17.55,0-31.77,14.22-31.77,31.77Z"/>
      <path class="cls-1" d="m247.02,98.71s-134.36,58.41-115.42,134.82c0,0-80.25-119.89,38.46-219.66-22.38,35.26-24.03,71.42-8.19,85.97,12.61,11.57,36.45,9.58,48.49,8.57,16-1.34,28.62-6.01,36.66-9.7Z"/>
    </g>
    <path class="cls-1" d="m464.13,214.34l-51.19-140.41c-.43-1.6-1.35-2.99-2.74-4.24-1.37-1.24-3.3-1.88-5.79-1.88h-32.36c-2.49,0-4.42.63-5.81,1.88-1.37,1.24-2.28,2.64-2.72,4.24l-21.29,58.16h36.36l9.62-27.31,9.62,27.31,10.73,30.43h-77.48l-18.96,51.82c-.15.58-.23,1.24-.23,1.95,0,1.19.48,2.23,1.42,3.17s2,1.42,3.17,1.42h26.9c2.46,0,4.24-.53,5.25-1.62,1.02-1.12,1.67-2.08,1.98-2.97l8.3-22.28h58.37l8.55,22.28c.28.89.96,1.85,2.06,2.97,1.12,1.09,2.74,1.62,4.92,1.62h26.9c1.32,0,2.44-.46,3.4-1.42s1.42-1.98,1.42-3.17c0-.71-.15-1.37-.43-1.95Z"/>
    <path class="cls-1" d="m666.26,213.91l-29.97-53.8c8.15-3.65,14.72-9.03,19.67-16.19,4.95-7.16,7.44-15.89,7.44-26.24,0-15.89-5.38-28.17-16.19-36.85-10.79-8.68-25.63-13.02-44.59-13.02h-59.51c-1.6,0-2.92.51-3.93,1.52-1.02,1.04-1.52,2.36-1.52,3.96v24.92h64.51c7.13,0,12.36,1.75,15.66,5.25,3.27,3.5,4.9,8.1,4.9,13.75s-1.7,10.23-5.13,13.58c-3.43,3.35-8.58,5.02-15.43,5.02h-64.51v79.61c0,1.47.51,2.72,1.52,3.83,1.02,1.09,2.33,1.62,3.93,1.62h28.24c1.6,0,2.92-.53,4.03-1.62,1.09-1.12,1.62-2.36,1.62-3.83v-48.55h22.31l24.95,48.11c.58,1.17,1.52,2.44,2.84,3.81,1.32,1.4,3.35,2.08,6.12,2.08h29.08c1.17,0,2.23-.46,3.17-1.42.96-.94,1.42-1.98,1.42-3.17,0-.71-.23-1.52-.63-2.39Z"/>
    <path class="cls-1" d="m745.44,220.9c-1.6,0-2.92-.55-3.93-1.64-1.01-1.1-1.53-2.37-1.53-3.83V73.29c0-1.6.52-2.92,1.53-3.95,1.01-1.01,2.33-1.53,3.93-1.53h59.49c18.95,0,33.81,4.34,44.6,13.03,10.8,8.67,16.19,20.95,16.19,36.84,0,10.36-2.49,19.1-7.44,26.25-4.97,7.14-11.51,12.53-19.68,16.18l29.97,53.8c.43.87.64,1.67.64,2.4,0,1.17-.46,2.22-1.42,3.17-.94.96-1.99,1.42-3.17,1.42h-29.08c-2.78,0-4.8-.69-6.12-2.08-1.32-1.37-2.26-2.65-2.85-3.83l-24.93-48.1h-22.3v48.55c0,1.46-.55,2.72-1.64,3.83-1.1,1.09-2.44,1.64-4.04,1.64h-28.22Zm33.9-85.07h25.15c6.85,0,11.99-1.67,15.41-5.04,3.43-3.35,5.14-7.87,5.14-13.56s-1.64-10.27-4.91-13.77c-3.29-3.49-8.51-5.25-15.64-5.25h-25.15v37.62Z"/>
    <path class="cls-1" d="m947.36,220.9c-1.6,0-2.92-.55-3.93-1.64-1.01-1.1-1.53-2.37-1.53-3.83V73.29c0-1.6.52-2.92,1.53-3.95,1.01-1.01,2.33-1.53,3.93-1.53h29.31c1.6,0,2.95.52,4.04,1.53,1.1,1.03,1.64,2.35,1.64,3.95v142.14c0,1.46-.53,2.72-1.64,3.83-1.09,1.09-2.44,1.64-4.04,1.64h-29.31Z"/>
  </g>
  <g>
    <path class="cls-2" d="m142.09,282.58c33.04-1.23,58.77-29.3,58.77-62.37v-59.25c0-12.52,10.15-22.67,22.67-22.67h0c12.52,0,22.67,10.15,22.67,22.67v66.51c0,43.43-35.53,80.47-78.96,80.34-29.95-.09-55.97-16.92-69.19-41.62,11.44,10.69,27,17.03,44.04,16.39Z"/>
    <g>
      <rect class="cls-2" x="299.32" y="250.39" width="682.67" height="7.61"/>
      <rect class="cls-2" x="299.32" y="333.52" width="682.67" height="7.61"/>
    </g>
    <g>
      <path class="cls-2" d="m307.7,315.08c-.37,0-.68-.12-.94-.36-.26-.24-.39-.56-.39-.97v-36.01c0-.41.13-.74.39-1s.57-.39.94-.39h5.03c.41,0,.73.13.97.39s.36.59.36,1v14.27h16.32v-14.27c0-.41.13-.74.39-1,.26-.26.57-.39.94-.39h4.98c.41,0,.74.13,1,.39s.39.59.39,1v36.01c0,.37-.13.68-.39.94s-.59.39-1,.39h-4.98c-.37,0-.68-.13-.94-.39-.26-.26-.39-.57-.39-.94v-14.82h-16.32v14.82c0,.37-.12.68-.36.94s-.56.39-.97.39h-5.03Z"/>
      <path class="cls-2" d="m350.3,315.08c-.37,0-.68-.13-.94-.39s-.39-.57-.39-.94v-36.01c0-.41.13-.74.39-1s.57-.39.94-.39h24.34c.41,0,.74.13,1,.39s.39.59.39,1v3.65c0,.37-.13.68-.39.94s-.59.39-1,.39h-18.2v9.79h16.98c.41,0,.74.12,1,.36.26.24.39.56.39.97v3.43c0,.41-.13.73-.39.97s-.59.36-1,.36h-16.98v10.12h18.64c.4,0,.74.13,1,.39.26.26.39.59.39,1v3.65c0,.37-.13.68-.39.94-.26.26-.59.39-1,.39h-24.78Z"/>
      <path class="cls-2" d="m383.27,315.08c-.29,0-.56-.11-.8-.33-.24-.22-.36-.5-.36-.83,0-.15.03-.31.11-.5l13.33-35.68c.11-.37.32-.69.64-.97.31-.28.75-.41,1.3-.41h6.03c.55,0,.98.14,1.27.41.29.28.52.6.66.97l13.33,35.68c.03.19.05.35.05.5,0,.33-.11.61-.33.83s-.48.33-.77.33h-4.81c-.52,0-.89-.12-1.14-.36s-.4-.47-.47-.69l-2.6-6.75h-16.43l-2.6,6.75c-.07.22-.23.45-.47.69-.24.24-.62.36-1.14.36h-4.81Zm10.95-14.16h12.56l-6.31-17.09-6.25,17.09Z"/>
      <path class="cls-2" d="m427.58,315.08c-.37,0-.68-.13-.94-.39s-.39-.57-.39-.94v-36.07c0-.37.13-.68.39-.94s.57-.39.94-.39h5.14c.37,0,.68.13.94.39.26.26.39.57.39.94v30.81h17.54c.41,0,.74.13,1,.39s.39.59.39,1v3.87c0,.37-.13.68-.39.94s-.59.39-1,.39h-24.01Z"/>
      <path class="cls-2" d="m464.2,315.08c-.37,0-.68-.13-.94-.39s-.39-.57-.39-.94v-30.59h-10.24c-.37,0-.68-.13-.94-.39-.26-.26-.39-.57-.39-.94v-4.09c0-.41.13-.74.39-1,.26-.26.57-.39.94-.39h28.22c.41,0,.74.13,1,.39s.39.59.39,1v4.09c0,.37-.13.68-.39.94-.26.26-.59.39-1,.39h-10.18v30.59c0,.37-.13.68-.39.94s-.59.39-1,.39h-5.09Z"/>
      <path class="cls-2" d="m491.42,315.08c-.37,0-.68-.12-.94-.36s-.39-.56-.39-.97v-36.01c0-.41.13-.74.39-1s.57-.39.94-.39h5.03c.41,0,.73.13.97.39s.36.59.36,1v14.27h16.32v-14.27c0-.41.13-.74.39-1,.26-.26.57-.39.94-.39h4.98c.41,0,.74.13,1,.39s.39.59.39,1v36.01c0,.37-.13.68-.39.94s-.59.39-1,.39h-4.98c-.37,0-.68-.13-.94-.39-.26-.26-.39-.57-.39-.94v-14.82h-16.32v14.82c0,.37-.12.68-.36.94s-.56.39-.97.39h-5.03Z"/>
      <path class="cls-2" d="m547.63,315.64c-3.43,0-6.33-.6-8.71-1.8-2.38-1.2-4.2-2.91-5.45-5.14-1.25-2.23-1.96-4.91-2.1-8.05-.04-1.51-.05-3.13-.05-4.87s.02-3.39.05-4.98c.15-3.1.86-5.77,2.13-8.02,1.27-2.25,3.1-3.97,5.48-5.17,2.38-1.2,5.26-1.8,8.66-1.8,2.51,0,4.76.33,6.75.99,1.99.66,3.69,1.58,5.09,2.74,1.4,1.16,2.49,2.52,3.26,4.07.77,1.55,1.18,3.23,1.22,5.04.03.33-.06.61-.3.83-.24.22-.53.33-.86.33h-5.26c-.41,0-.74-.1-.99-.3-.26-.2-.44-.55-.56-1.02-.59-2.44-1.6-4.09-3.04-4.98-1.44-.88-3.23-1.33-5.37-1.33-2.47,0-4.44.69-5.92,2.07-1.48,1.38-2.27,3.66-2.38,6.83-.11,3.02-.11,6.12,0,9.29.11,3.17.9,5.45,2.38,6.83,1.47,1.38,3.45,2.07,5.92,2.07,2.14,0,3.94-.45,5.4-1.36,1.45-.9,2.46-2.55,3.01-4.95.11-.52.29-.86.56-1.05.26-.18.59-.28.99-.28h5.26c.33,0,.62.11.86.33.24.22.34.5.3.83-.04,1.81-.44,3.49-1.22,5.04-.78,1.55-1.86,2.9-3.26,4.06-1.4,1.16-3.1,2.08-5.09,2.74-1.99.66-4.24,1-6.75,1Z"/>
      <path class="cls-2" d="m569.98,315.08c-.29,0-.56-.11-.8-.33-.24-.22-.36-.5-.36-.83,0-.15.03-.31.11-.5l13.33-35.68c.11-.37.32-.69.64-.97.31-.28.75-.41,1.3-.41h6.03c.55,0,.98.14,1.27.41.29.28.52.6.66.97l13.33,35.68c.03.19.05.35.05.5,0,.33-.11.61-.33.83s-.48.33-.77.33h-4.81c-.52,0-.89-.12-1.14-.36-.24-.24-.4-.47-.47-.69l-2.6-6.75h-16.43l-2.6,6.75c-.07.22-.23.45-.47.69s-.62.36-1.14.36h-4.81Zm10.95-14.16h12.56l-6.31-17.09-6.25,17.09Z"/>
      <path class="cls-2" d="m614.29,315.08c-.37,0-.68-.13-.94-.39s-.39-.57-.39-.94v-36.01c0-.41.13-.74.39-1s.57-.39.94-.39h14.33c4.46,0,7.98,1.03,10.56,3.1,2.58,2.06,3.87,5.07,3.87,9.02,0,2.73-.67,5-2.02,6.8-1.35,1.81-3.14,3.12-5.39,3.93l8.08,14.11c.11.22.17.42.17.61,0,.33-.12.61-.36.83-.24.22-.51.33-.8.33h-5.03c-.63,0-1.11-.17-1.44-.5s-.59-.66-.77-1l-7.14-13.11h-7.69v13.28c0,.37-.12.68-.36.94s-.56.39-.97.39h-5.03Zm6.36-20.86h7.8c2.25,0,3.93-.51,5.03-1.52,1.11-1.01,1.66-2.44,1.66-4.29s-.55-3.29-1.63-4.34c-1.09-1.05-2.78-1.58-5.06-1.58h-7.8v11.73Z"/>
      <path class="cls-2" d="m653.79,315.08c-.37,0-.68-.13-.94-.39s-.39-.57-.39-.94v-36.01c0-.41.13-.74.39-1s.57-.39.94-.39h24.34c.41,0,.74.13,1,.39s.39.59.39,1v3.65c0,.37-.13.68-.39.94s-.59.39-1,.39h-18.2v9.79h16.98c.41,0,.74.12,1,.36.26.24.39.56.39.97v3.43c0,.41-.13.73-.39.97s-.59.36-1,.36h-16.98v10.12h18.64c.4,0,.74.13,1,.39.26.26.39.59.39,1v3.65c0,.37-.13.68-.39.94-.26.26-.59.39-1,.39h-24.78Z"/>
      <path class="cls-2" d="m717.52,315.64c-3.43,0-6.3-.51-8.6-1.52-2.3-1.01-4.06-2.34-5.25-3.98-1.2-1.64-1.84-3.37-1.91-5.17,0-.33.11-.61.33-.83.22-.22.5-.33.83-.33h4.92c.48,0,.84.1,1.08.3.24.2.45.45.64.75.22.7.64,1.39,1.27,2.07.63.68,1.48,1.25,2.57,1.69,1.09.44,2.46.66,4.12.66,2.65,0,4.64-.44,5.95-1.33,1.31-.88,1.97-2.08,1.97-3.6,0-1.07-.35-1.93-1.05-2.57-.7-.64-1.78-1.23-3.24-1.77s-3.39-1.1-5.78-1.69c-2.77-.66-5.08-1.46-6.94-2.41-1.86-.94-3.26-2.13-4.21-3.57-.94-1.44-1.41-3.26-1.41-5.48s.58-4.04,1.74-5.7,2.82-2.97,4.98-3.93,4.73-1.44,7.72-1.44c2.4,0,4.52.32,6.36.97,1.84.65,3.38,1.49,4.59,2.55,1.22,1.05,2.15,2.18,2.79,3.38.65,1.2.99,2.37,1.02,3.51,0,.3-.1.56-.3.8-.2.24-.49.36-.86.36h-5.14c-.3,0-.59-.07-.89-.22-.29-.15-.53-.42-.72-.83-.22-1.14-.94-2.12-2.16-2.93-1.22-.81-2.79-1.22-4.7-1.22s-3.6.37-4.81,1.11c-1.22.74-1.83,1.88-1.83,3.43,0,1.03.3,1.89.91,2.57.61.68,1.58,1.28,2.93,1.8,1.35.52,3.13,1.07,5.34,1.66,3.13.7,5.7,1.51,7.69,2.44s3.45,2.09,4.37,3.51,1.39,3.22,1.39,5.4c0,2.43-.66,4.51-1.97,6.22-1.31,1.71-3.14,3.03-5.5,3.96-2.36.92-5.11,1.38-8.24,1.38Z"/>
      <path class="cls-2" d="m743.19,315.08c-.37,0-.68-.13-.94-.39s-.39-.57-.39-.94v-36.01c0-.41.13-.74.39-1s.57-.39.94-.39h24.34c.41,0,.74.13,1,.39s.39.59.39,1v3.65c0,.37-.13.68-.39.94s-.59.39-1,.39h-18.2v9.79h16.98c.41,0,.74.12,1,.36.26.24.39.56.39.97v3.43c0,.41-.13.73-.39.97s-.59.36-1,.36h-16.98v10.12h18.64c.4,0,.74.13,1,.39.26.26.39.59.39,1v3.65c0,.37-.13.68-.39.94-.26.26-.59.39-1,.39h-24.78Z"/>
      <path class="cls-2" d="m779.87,315.08c-.37,0-.68-.13-.94-.39s-.39-.57-.39-.94v-36.01c0-.41.13-.74.39-1s.57-.39.94-.39h14.33c4.46,0,7.98,1.03,10.56,3.1,2.58,2.06,3.87,5.07,3.87,9.02,0,2.73-.67,5-2.02,6.8-1.35,1.81-3.14,3.12-5.39,3.93l8.08,14.11c.11.22.17.42.17.61,0,.33-.12.61-.36.83-.24.22-.51.33-.8.33h-5.03c-.63,0-1.11-.17-1.44-.5s-.59-.66-.77-1l-7.14-13.11h-7.69v13.28c0,.37-.12.68-.36.94s-.56.39-.97.39h-5.03Zm6.36-20.86h7.8c2.25,0,3.93-.51,5.03-1.52,1.11-1.01,1.66-2.44,1.66-4.29s-.55-3.29-1.63-4.34-2.78-1.58-5.06-1.58h-7.8v11.73Z"/>
      <path class="cls-2" d="m828.11,315.08c-.59,0-1.05-.15-1.38-.44-.33-.29-.57-.66-.72-1.11l-11.84-35.52c-.07-.18-.11-.35-.11-.5,0-.33.11-.61.33-.83.22-.22.5-.33.83-.33h4.87c.52,0,.91.14,1.19.41s.45.55.53.8l9.35,28.49,9.35-28.49c.07-.26.25-.53.53-.8s.67-.41,1.19-.41h4.87c.29,0,.56.11.8.33.24.22.36.5.36.83,0,.15-.04.31-.11.5l-11.84,35.52c-.15.44-.39.81-.72,1.11-.33.3-.79.44-1.38.44h-6.09Z"/>
      <path class="cls-2" d="m857.71,315.08c-.37,0-.68-.13-.94-.39s-.39-.57-.39-.94v-36.07c0-.37.13-.68.39-.94s.57-.39.94-.39h5.2c.41,0,.73.13.97.39s.36.57.36.94v36.07c0,.37-.12.68-.36.94s-.56.39-.97.39h-5.2Z"/>
      <path class="cls-2" d="m890.12,315.64c-3.43,0-6.33-.6-8.71-1.8-2.38-1.2-4.2-2.91-5.45-5.14-1.25-2.23-1.96-4.91-2.1-8.05-.04-1.51-.05-3.13-.05-4.87s.02-3.39.05-4.98c.15-3.1.86-5.77,2.13-8.02,1.27-2.25,3.1-3.97,5.48-5.17,2.38-1.2,5.26-1.8,8.66-1.8,2.51,0,4.76.33,6.75.99,1.99.66,3.69,1.58,5.09,2.74,1.4,1.16,2.49,2.52,3.26,4.07.77,1.55,1.18,3.23,1.22,5.04.03.33-.06.61-.3.83-.24.22-.53.33-.86.33h-5.26c-.41,0-.74-.1-.99-.3-.26-.2-.44-.55-.56-1.02-.59-2.44-1.6-4.09-3.04-4.98-1.44-.88-3.23-1.33-5.37-1.33-2.47,0-4.44.69-5.92,2.07-1.48,1.38-2.27,3.66-2.38,6.83-.11,3.02-.11,6.12,0,9.29.11,3.17.9,5.45,2.38,6.83,1.47,1.38,3.45,2.07,5.92,2.07,2.14,0,3.94-.45,5.4-1.36,1.45-.9,2.46-2.55,3.01-4.95.11-.52.29-.86.56-1.05.26-.18.59-.28.99-.28h5.26c.33,0,.62.11.86.33.24.22.34.5.3.83-.04,1.81-.44,3.49-1.22,5.04-.78,1.55-1.86,2.9-3.26,4.06-1.4,1.16-3.1,2.08-5.09,2.74-1.99.66-4.24,1-6.75,1Z"/>
      <path class="cls-2" d="m916.62,315.08c-.37,0-.68-.13-.94-.39s-.39-.57-.39-.94v-36.01c0-.41.13-.74.39-1s.57-.39.94-.39h24.34c.41,0,.74.13,1,.39s.39.59.39,1v3.65c0,.37-.13.68-.39.94s-.59.39-1,.39h-18.2v9.79h16.98c.41,0,.74.12,1,.36.26.24.39.56.39.97v3.43c0,.41-.13.73-.39.97s-.59.36-1,.36h-16.98v10.12h18.64c.4,0,.74.13,1,.39.26.26.39.59.39,1v3.65c0,.37-.13.68-.39.94-.26.26-.59.39-1,.39h-24.78Z"/>
      <path class="cls-2" d="m965.42,315.64c-3.43,0-6.3-.51-8.6-1.52-2.3-1.01-4.06-2.34-5.25-3.98-1.2-1.64-1.84-3.37-1.91-5.17,0-.33.11-.61.33-.83.22-.22.5-.33.83-.33h4.92c.48,0,.84.1,1.08.3.24.2.45.45.64.75.22.7.64,1.39,1.27,2.07.63.68,1.48,1.25,2.57,1.69,1.09.44,2.46.66,4.12.66,2.65,0,4.64-.44,5.95-1.33,1.31-.88,1.97-2.08,1.97-3.6,0-1.07-.35-1.93-1.05-2.57-.7-.64-1.78-1.23-3.24-1.77-1.46-.54-3.39-1.1-5.78-1.69-2.77-.66-5.08-1.46-6.94-2.41-1.86-.94-3.26-2.13-4.21-3.57-.94-1.44-1.41-3.26-1.41-5.48s.58-4.04,1.74-5.7c1.16-1.66,2.82-2.97,4.98-3.93s4.73-1.44,7.72-1.44c2.4,0,4.52.32,6.36.97,1.84.65,3.38,1.49,4.59,2.55,1.22,1.05,2.15,2.18,2.79,3.38.65,1.2.99,2.37,1.02,3.51,0,.3-.1.56-.3.8-.2.24-.49.36-.86.36h-5.14c-.3,0-.59-.07-.89-.22-.29-.15-.53-.42-.72-.83-.22-1.14-.94-2.12-2.16-2.93-1.22-.81-2.79-1.22-4.7-1.22s-3.6.37-4.81,1.11c-1.22.74-1.83,1.88-1.83,3.43,0,1.03.3,1.89.91,2.57.61.68,1.58,1.28,2.93,1.8,1.35.52,3.13,1.07,5.34,1.66,3.13.7,5.7,1.51,7.69,2.44,1.99.92,3.45,2.09,4.37,3.51.92,1.42,1.39,3.22,1.39,5.4,0,2.43-.66,4.51-1.97,6.22-1.31,1.71-3.14,3.03-5.5,3.96-2.36.92-5.11,1.38-8.24,1.38Z"/>
    </g>
  </g>
</svg>