<?xml version="1.0" encoding="UTF-8"?>
<svg id="Layer_1" data-name="Layer 1" xmlns="http://www.w3.org/2000/svg" viewBox="0 0 685.79 1000">
  <defs>
    <style>
      .cls-1 {
        fill: #096982;
      }

      .cls-2 {
        fill: #fe8f01;
      }
    </style>
  </defs>
  <circle class="cls-2" cx="538.98" cy="152.21" r="63.54"/>
  <g>
    <path class="cls-1" d="m16.27,339.79v322.93c0,173.39,138.44,317.69,311.83,318.97,120.98.89,226.29-66.61,279.55-166.13-44.3,41.36-104.02,66.42-169.61,65.58-134.17-1.7-240.8-113.83-240.8-248.02v-293.33c0-49.97-40.51-90.48-90.48-90.48h0c-49.97,0-90.48,40.51-90.48,90.48Z"/>
    <path class="cls-1" d="m669.51,259.91s-382.66,166.35-328.73,383.98c0,0-228.54-341.45,109.54-625.59-63.74,100.42-68.45,203.41-23.31,244.83,35.92,32.96,103.8,27.28,138.11,24.4,45.56-3.82,81.51-17.13,104.4-27.63Z"/>
  </g>
  <path class="cls-2" d="m370.67,783.59c94.11-3.52,167.39-83.45,167.39-177.62v-168.75c0-35.65,28.9-64.55,64.55-64.55h0c35.65,0,64.55,28.9,64.55,64.55v189.42c0,123.7-101.18,229.19-224.88,228.8-85.3-.27-159.39-48.19-197.04-118.53,32.59,30.43,76.89,48.49,125.42,46.68Z"/>
</svg>