<?xml version="1.0" encoding="UTF-8"?>
<svg id="Layer_1" data-name="Layer 1" xmlns="http://www.w3.org/2000/svg" viewBox="0 0 1000 1000">
  <defs>
    <style>
      .cls-1 {
        fill: #c1dadf;
      }
    </style>
  </defs>
  <path class="cls-1" d="m948.97,350.67l-.47-22.61c-.37-17.73-.74-35.47-1.1-53.2-.37-17.73-.72-35.45-1.08-53.17l-3.19-159.47c0-.29,0-.56-.02-.66-.3-18.27-10.52-53.4-70.09-31.14-19.71,7.37-34.1,14.68-47.69,21.09-4.75,2.24-9.54,4.45-14.35,6.68-35.67,16.45-72.57,33.46-98.87,66.92-8.58,10.89-19.44,16.2-33.21,16.2-3.89,0-8.06-.44-12.42-1.3-8.21-1.6-16.2-2.43-23.75-2.43-19.86,0-37.29,5.38-53.27,16.44-7.94,5.5-17.45,9.84-27.49,12.58-6.34,1.72-11.5,2.56-15.75,2.56-3.1,0-5.61-.46-7.45-1.37-13.52-6.69-26.8-9.95-40.63-9.95-4.53,0-9.1.35-13.7,1.06,2.95-.93,5.88-1.94,8.77-3.05,6.86-2.65,13.65-12.15,13.72-19.18.03-3.73-1.13-6.79-3.46-9.14-3.98-4.01-10.05-4.55-15.46-4.55-.54,0-1.06,0-1.57.02-5.41.07-10.87.27-16.2.49-6.39.24-12.98.49-19.42.49-1.72,0-3.46-.02-5.18-.05-3.22-.08-7.28-2.41-10.84-4.59-2.88-1.75-5.77-3.88-8.56-5.93-4.13-3.05-8.41-6.2-13.22-8.63-5.85-2.92-11.93-5.39-17.85-7.81-6.79-2.76-13.82-5.63-20.21-9.1-15.04-8.18-28.81-11.99-43.37-11.99-.78,0-1.55,0-2.33.03-56.74,1.62-114.16,2.55-172.91,3.42-8.88.13-18.34.19-29.75.19-1.9,0-8.55-.01-16.63-.03-22-.05-40.09,17.36-40.85,39.35-.65,18.8-1.37,39.42-1.74,49.86l-.07,2.02c-2.09,59.59-4.25,121.22-6.07,181.96q-2.93,98.77-7.81,220.49c-9.43,235.22-4.24,214.92,49.33,225.79,41.06,8.33,48.3,14.28,56.51,37.91,1.67,4.82,4.05,9.29,6.39,13.71,1.33,2.51,2.71,5.11,3.89,7.69,9.44,20.65,24.88,31.57,44.64,31.57,2.36,0,4.82-.17,7.3-.49,2.71-.35,5.33-.52,7.8-.52,15.27,0,26.4,6.84,35,21.54,1.13,1.92,2.48,3.42,3.79,4.89.32.35.62.69.93,1.05,7.15,8.28,15.48,12.49,24.76,12.49,3.02,0,6.14-.47,9.24-1.4,8.77-2.61,17.18-6.36,25.3-9.98l2.9-1.28c3.05-1.35,5.7-2.01,8.06-2.01,2.97,0,5.66,1.1,8.23,3.37,10.92,9.61,23.09,14.48,36.21,14.48,7.28,0,14.94-1.53,22.71-4.55,7.77-3,15.31-6.63,22.64-10.15l.46-.22c2.76-1.33,5.55-2.66,8.33-3.94,4.52-2.11,9-4.27,13.49-6.41l.83-.39c.02.07.05.15.07.22.46,1.26.83,2.7,1.13,3.91,5.16,21.22,17.36,36.82,37.34,47.67,3.84,2.07,7.28,5.38,10.94,8.87,2.6,2.49,5.29,5.07,8.33,7.37.73.54,1.4,1.08,2.07,1.6,2.85,2.21,5.53,4.32,9.51,5.88,4.4,1.72,9.14,2.83,14.09,3.29,1.84.19,3.78.27,5.73.27,6.32,0,13.05-.89,21.17-2.82,20.13-4.75,26.75-13.12,27.24-34.37.13-5.8.89-6.95,5.06-7.75,12.85-2.49,19.88-11.65,19.76-25.79-.07-9.05.57-18.32,1.18-27.28l.3-4.42c1.28-19.3,8.88-36.88,23.85-55.24l.07.12c2.31,4.4,4.48,8.56,6.36,12.71l.74,1.64c3.14,7.03,7.43,16.67,19.57,16.67.35,0,.71-.02,1.1-.03,14.88-.72,24.92-7.4,29.01-19.3,3.25-9.41,6.14-19.45,5.23-29.08-2.29-24.71,6.86-46.16,28.79-67.48,2.04-1.99,4.01-4.01,5.92-6l.15-.17c2.8-2.9,5.68-5.9,8.66-8.53,2.24-1.99,4.97-3.74,7.86-5.6l.08-.05c.3.46.52.86.59,1.11,3.39,12.59,11.23,14.46,15.61,14.46,3.46,0,7.18-1.13,11.08-3.39,11.88-6.89,21.02-13.2,28.76-19.86,16.54-14.21,31.96-28.99,44.89-41.57,1.2-1.16,2.41-2.33,3.64-3.51,7.3-6.98,14.85-14.21,19.69-23.18,9.1-16.92,15.83-33.45,19.98-49.12,5.09-19.17,9.34-38.86,13.47-58.02,2.78-12.85,5.65-26.13,8.77-39.24.46-1.89.91-3.79,1.38-5.71l.81-3.29c3.89-15.96,7.94-32.45,8.73-49.36.46-9.56,0-17.23-1.4-24.16-.64-3.15-1.38-6.52-2.63-10.1l-.4-1.16c-1.13-3.15-2.28-6.42-3.07-9.68-.25-.99-.32-1.94-.2-2.85.19-1.52.27-1.6,3.1-2.63.98-.35,1.99-.71,3.03-1.23,2.7-1.28,5.01-2.68,7.06-4.32,11.77-9.42,12.83-24.6,12.61-35.18Zm-487.23-185.6c.37-.08.74-.19,1.11-.27-1.38.54-2.78,1.1-4.2,1.69-2.17.93-4.3,1.4-6.32,1.4-.46,0-.93-.02-1.38-.07,3.54-.94,7.1-1.82,10.79-2.75Zm463.68,200.62c-1.65,2.33-5.34,3.79-8.31,4.97-.64.24-1.26.47-1.89.69-2.33.83-5.19,1.85-7.79,4.01-3.27,2.68-5.68,6.32-6.79,10.27-2.09,7.33.12,14.7,2.56,20.94,4.18,10.7,6.1,22.05,5.71,33.72-.52,15.73-4.5,31.56-8.36,46.86l-.44,1.72c-4.45,17.68-8.53,35.62-12.47,52.98-4.72,20.8-9.61,42.31-15.14,63.25-6.59,25.07-19.23,43.78-38.67,57.23-9.1,6.29-16.89,14.35-24.46,22.17-4.25,4.42-8.65,8.97-13.18,13.05-5.43,4.92-11.38,9.44-17.11,13.81-1.57,1.18-3.1,2.34-4.62,3.51-5.5-8.9-13.45-13.99-21.9-13.99-6.1,0-12.09,2.65-17.31,7.65-15.22,14.63-30.07,31.29-45.38,50.96-5.12,6.59-6.42,15.83-7.55,23.95l-.34,2.49c-.88,5.93-1.16,12-1.45,17.92-.22,4.7-.46,9.58-1.01,14.24-.47,4.21-1.43,10.33-4.08,14.87-1.3,2.24-2.85,3.52-4.23,3.52-1.55,0-3.42-1.79-4.67-4.45-.47-.98-.93-1.97-1.4-2.97l-.22-.49c-2.29-4.92-4.65-10.01-7.64-14.82-5.06-8.18-10.55-12.14-16.81-12.14-5.78,0-11.4,3.51-17.19,10.74-21.81,27.21-32,59.24-30.26,95.21.42,8.93-.79,12.15-8.8,13.54-6.88,1.2-15.22,6.09-15.86,22.49-.35,9.24-6.78,17.08-15.59,19.07-4.43.99-9.15,1.9-13.52,1.9-8.18,0-13.28-3.12-17.58-10.77-3.39-6.02-10.2-9.88-17.04-13.15-17.48-8.36-27.66-21.44-31.14-39.95-2.07-10.97-8.68-17.28-18.16-17.28-3.1,0-6.51.69-10.13,2.04-4.77,1.77-9.22,4.2-13.6,6.57-3.08,1.69-6.27,3.42-9.51,4.85-9.73,4.28-19.79,8.72-30.16,11.95-3.03.96-6.07,1.43-8.98,1.43-6.66,0-12.83-2.46-18.32-7.3-7.99-7.06-16.62-10.62-25.66-10.62-6.86,0-14.06,2.07-21.43,6.17-2.93,1.62-6.79,3.69-10.81,5.34-5.09,2.12-8.6,3.05-11.38,3.05-4.13,0-7.64-2.39-12.93-8.85-1.7-2.09-3.41-4.18-5.11-6.3l-.15-.19c-2.43-3.02-4.87-6.05-7.35-9.04-8.6-10.28-19.42-15.49-32.2-15.49-1.85,0-3.76.12-5.7.34-4.62.52-9.31.59-12.86.59h-.94c-13.23,0-22.17-5.44-27.31-16.64-1.7-3.71-3.61-7.3-5.46-10.84-2.53-4.79-5.16-9.76-7.1-14.73-11.24-28.73-34.15-41.25-68.59-47.93-24.27-4.7-36.4-3.85-35.33-69.07v-.32c.34-32.52.71-66.13,1.52-99.16,2.16-86.98,4.87-175.12,7.52-260.33l.44-14.5c.42-13.59.83-26.94,1.23-40.19v-.24c1.53-50.52,3-98.62,5.06-152.86l.61-15.65c.5-12.85,10.96-23.07,23.82-23.28,39-.62,117.83-1.94,157.01-3.07,19.1-.56,38.22-1.1,57.32-1.6.54,0,1.08-.02,1.62-.02,10.94,0,21.07,2.71,32.86,8.8,8.23,4.26,16.84,7.89,25.17,11.4,5.7,2.39,11.6,4.89,17.26,7.54l.59.27c4.43,2.06,9.46,4.38,11.24,7.32,7.06,11.63,16.96,13.28,25.71,13.37l4.52.03c-1.1.22-2.19.42-3.27.64-4.01.78-8.16,1.58-12.22,2.83-7.13,2.17-11.97,6.74-13.27,12.53-1.3,5.77,1.13,11.97,6.66,16.98,7.3,6.66,16.07,10.03,26.04,10.03,4.69,0,9.76-.76,15.09-2.23,3.46-.96,6.88-2.14,10.22-3.3,2.55-.88,5.17-1.8,7.79-2.58,4.77-1.43,9.54-2.16,14.16-2.16,7.2,0,14.19,1.75,20.84,5.19,9,4.72,18.48,7.1,28.15,7.1s19.84-2.34,30.65-7.16l1.69-.74c8.34-3.71,16.98-7.55,24.71-12.88,10.62-7.33,22.86-10.91,37.37-10.91,4.45,0,9.1.32,14.26.96,1.55.2,3.12.35,4.79.51,2.68.25,5.46.51,7.99,1.05,4.52.96,9,1.45,13.33,1.45,16.27,0,30.36-6.74,40.73-19.5,27.81-34.25,67.01-52.41,104.96-70.01,6.89-3.2,14.04-6.51,21.04-9.88,8.99-4.32,28.11-12.58,44.26-19.47,12.85-5.48,27.18,3.72,27.54,17.68.29,10.93.55,21.15.58,22.87l1.08,53.19,1.06,53.19c.34,17.68.69,35.38,1.04,53.2l2.12,106.37.05,1.84c.12,4.53.27,9.69-1.82,12.63Z"/>
</svg>