<?xml version="1.0" standalone="no"?>
<svg xmlns:xlink="http://www.w3.org/1999/xlink" id="wave" style="transform:rotate(0deg); transition: 0.3s" viewBox="0 0 1440 320" version="1.1" xmlns="http://www.w3.org/2000/svg"><defs><linearGradient id="sw-gradient-0" x1="0" x2="0" y1="1" y2="0"><stop stop-color="rgba(243, 106, 62, 1)" offset="0%"/><stop stop-color="rgba(255, 179, 11, 1)" offset="100%"/></linearGradient></defs><path style="transform:translate(0, 0px); opacity:1" fill="url(#sw-gradient-0)" d="M0,160L80,170.7C160,181,320,203,480,181.3C640,160,800,96,960,64C1120,32,1280,32,1440,64C1600,96,1760,160,1920,160C2080,160,2240,96,2400,106.7C2560,117,2720,203,2880,208C3040,213,3200,139,3360,101.3C3520,64,3680,64,3840,74.7C4000,85,4160,107,4320,122.7C4480,139,4640,149,4800,160C4960,171,5120,181,5280,192C5440,203,5600,213,5760,197.3C5920,181,6080,139,6240,149.3C6400,160,6560,224,6720,240C6880,256,7040,224,7200,218.7C7360,213,7520,235,7680,250.7C7840,267,8000,277,8160,277.3C8320,277,8480,267,8640,245.3C8800,224,8960,192,9120,149.3C9280,107,9440,53,9600,69.3C9760,85,9920,171,10080,213.3C10240,256,10400,256,10560,261.3C10720,267,10880,277,11040,250.7C11200,224,11360,160,11440,128L11520,96L11520,320L11440,320C11360,320,11200,320,11040,320C10880,320,10720,320,10560,320C10400,320,10240,320,10080,320C9920,320,9760,320,9600,320C9440,320,9280,320,9120,320C8960,320,8800,320,8640,320C8480,320,8320,320,8160,320C8000,320,7840,320,7680,320C7520,320,7360,320,7200,320C7040,320,6880,320,6720,320C6560,320,6400,320,6240,320C6080,320,5920,320,5760,320C5600,320,5440,320,5280,320C5120,320,4960,320,4800,320C4640,320,4480,320,4320,320C4160,320,4000,320,3840,320C3680,320,3520,320,3360,320C3200,320,3040,320,2880,320C2720,320,2560,320,2400,320C2240,320,2080,320,1920,320C1760,320,1600,320,1440,320C1280,320,1120,320,960,320C800,320,640,320,480,320C320,320,160,320,80,320L0,320Z"/></svg>