<?xml version="1.0" standalone="no"?>
<svg xmlns:xlink="http://www.w3.org/1999/xlink" id="wave" style="transform:rotate(0deg); transition: 0.3s" viewBox="0 0 1440 490" version="1.1" xmlns="http://www.w3.org/2000/svg"><defs><linearGradient id="sw-gradient-0" x1="0" x2="0" y1="1" y2="0"><stop stop-color="rgba(243, 106, 62, 1)" offset="0%"/><stop stop-color="rgba(255, 179, 11, 1)" offset="100%"/></linearGradient></defs><path style="transform:translate(0, 0px); opacity:1" fill="url(#sw-gradient-0)" d="M0,245L80,261.3C160,278,320,310,480,277.7C640,245,800,147,960,98C1120,49,1280,49,1440,98C1600,147,1760,245,1920,245C2080,245,2240,147,2400,163.3C2560,180,2720,310,2880,318.5C3040,327,3200,212,3360,155.2C3520,98,3680,98,3840,114.3C4000,131,4160,163,4320,187.8C4480,212,4640,229,4800,245C4960,261,5120,278,5280,294C5440,310,5600,327,5760,302.2C5920,278,6080,212,6240,228.7C6400,245,6560,343,6720,367.5C6880,392,7040,343,7200,334.8C7360,327,7520,359,7680,383.8C7840,408,8000,425,8160,424.7C8320,425,8480,408,8640,375.7C8800,343,8960,294,9120,228.7C9280,163,9440,82,9600,106.2C9760,131,9920,261,10080,326.7C10240,392,10400,392,10560,400.2C10720,408,10880,425,11040,383.8C11200,343,11360,245,11440,196L11520,147L11520,490L11440,490C11360,490,11200,490,11040,490C10880,490,10720,490,10560,490C10400,490,10240,490,10080,490C9920,490,9760,490,9600,490C9440,490,9280,490,9120,490C8960,490,8800,490,8640,490C8480,490,8320,490,8160,490C8000,490,7840,490,7680,490C7520,490,7360,490,7200,490C7040,490,6880,490,6720,490C6560,490,6400,490,6240,490C6080,490,5920,490,5760,490C5600,490,5440,490,5280,490C5120,490,4960,490,4800,490C4640,490,4480,490,4320,490C4160,490,4000,490,3840,490C3680,490,3520,490,3360,490C3200,490,3040,490,2880,490C2720,490,2560,490,2400,490C2240,490,2080,490,1920,490C1760,490,1600,490,1440,490C1280,490,1120,490,960,490C800,490,640,490,480,490C320,490,160,490,80,490L0,490Z"/></svg>