<?xml version="1.0" standalone="no"?>
<svg xmlns:xlink="http://www.w3.org/1999/xlink" id="wave" style="transform:rotate(0deg); transition: 0.3s" viewBox="0 0 1440 420" version="1.1" xmlns="http://www.w3.org/2000/svg"><defs><linearGradient id="sw-gradient-0" x1="0" x2="0" y1="1" y2="0"><stop stop-color="#A8DFFF" offset="0%"/><stop stop-color="#1A79CB" offset="100%"/></linearGradient></defs><path style="transform:translate(0, 0px); opacity:1" fill="url(#sw-gradient-0)" d="M0,210L80,224C160,238,320,266,480,238C640,210,800,126,960,84C1120,42,1280,42,1440,84C1600,126,1760,210,1920,210C2080,210,2240,126,2400,140C2560,154,2720,266,2880,273C3040,280,3200,182,3360,133C3520,84,3680,84,3840,98C4000,112,4160,140,4320,161C4480,182,4640,196,4800,210C4960,224,5120,238,5280,252C5440,266,5600,280,5760,259C5920,238,6080,182,6240,196C6400,210,6560,294,6720,315C6880,336,7040,294,7200,287C7360,280,7520,308,7680,329C7840,350,8000,364,8160,364C8320,364,8480,350,8640,322C8800,294,8960,252,9120,196C9280,140,9440,70,9600,91C9760,112,9920,224,10080,280C10240,336,10400,336,10560,343C10720,350,10880,364,11040,329C11200,294,11360,210,11440,168L11520,126L11520,420L11440,420C11360,420,11200,420,11040,420C10880,420,10720,420,10560,420C10400,420,10240,420,10080,420C9920,420,9760,420,9600,420C9440,420,9280,420,9120,420C8960,420,8800,420,8640,420C8480,420,8320,420,8160,420C8000,420,7840,420,7680,420C7520,420,7360,420,7200,420C7040,420,6880,420,6720,420C6560,420,6400,420,6240,420C6080,420,5920,420,5760,420C5600,420,5440,420,5280,420C5120,420,4960,420,4800,420C4640,420,4480,420,4320,420C4160,420,4000,420,3840,420C3680,420,3520,420,3360,420C3200,420,3040,420,2880,420C2720,420,2560,420,2400,420C2240,420,2080,420,1920,420C1760,420,1600,420,1440,420C1280,420,1120,420,960,420C800,420,640,420,480,420C320,420,160,420,80,420L0,420Z"/></svg>